<svg xmlns="http://www.w3.org/2000/svg" width="600" height="600" viewBox="0 0 600 600" version="1.1"><path d="M 189.731 110.720 L 77.050 175.439 76.775 305.470 C 76.624 376.986, 76.628 435.950, 76.784 436.500 C 77.238 438.101, 299.263 567.504, 301.487 567.464 C 304.341 567.413, 522.166 442.206, 526 438.413 C 527.318 437.109, 527.500 421.137, 527.500 306.739 L 527.500 176.548 416 111.281 C 354.675 75.384, 304.030 46.010, 303.456 46.007 C 302.882 46.003, 251.706 75.124, 189.731 110.720 M 194.668 114.935 C 135.911 148.915, 87.901 177.118, 87.979 177.608 C 88.217 179.098, 300.389 302.049, 302 301.630 C 305.074 300.832, 515.887 178.460, 515.844 177.500 C 515.796 176.421, 304.158 53.018, 302.500 53.103 C 301.950 53.131, 253.426 80.956, 194.668 114.935 M 383.108 130.965 C 378.493 133.670, 374.342 136.258, 373.885 136.715 C 373.427 137.173, 379.411 141.257, 387.183 145.790 L 401.314 154.032 411.180 148.397 C 419.035 143.911, 420.820 142.488, 419.933 141.419 C 418.364 139.529, 415.125 138.665, 413.702 139.759 C 413.041 140.267, 410.021 142.075, 406.991 143.777 C 401.570 146.822, 401.442 146.842, 399.061 145.046 L 396.640 143.220 402.350 139.998 C 406.879 137.442, 407.828 136.497, 406.939 135.427 C 404.670 132.692, 402.217 132.935, 396.142 136.496 C 390.858 139.593, 389.800 139.892, 388.033 138.788 C 386.915 138.090, 386 137.275, 386 136.978 C 386 136.680, 388.762 134.807, 392.139 132.816 L 398.278 129.195 395.188 127.597 C 393.489 126.719, 391.964 126.010, 391.800 126.023 C 391.635 126.036, 387.724 128.259, 383.108 130.965 M 361.838 143.182 C 359.824 143.718, 356.337 145.732, 354.088 147.656 C 347.259 153.502, 348.931 159.280, 359 164.632 C 361.668 166.050, 364.638 166.491, 371.500 166.487 C 379.324 166.482, 381.167 166.131, 385.605 163.797 C 389.057 161.982, 391.125 160.113, 391.990 158.024 C 392.694 156.326, 393.025 154.692, 392.726 154.393 C 392.428 154.094, 390.158 154.154, 387.682 154.525 C 384.433 155.012, 383.042 155.732, 382.681 157.113 C 382.104 159.320, 376.353 162.010, 372.282 161.978 C 367.993 161.944, 361.142 158.406, 359.842 155.553 C 358.341 152.258, 360.694 149.429, 366.159 147.957 C 368.271 147.388, 370 146.527, 370 146.043 C 370 145.559, 370.273 144.452, 370.607 143.582 C 371.316 141.735, 367.863 141.577, 361.838 143.182 M 264.287 148.650 L 262.074 150.195 269.701 161.348 C 273.896 167.481, 277.633 172.857, 278.007 173.293 C 278.802 174.222, 284.984 170.935, 284.994 169.579 C 284.997 169.072, 284.284 167.867, 283.410 166.900 C 281.927 165.262, 282.181 164.934, 287.160 162.045 C 292.312 159.056, 295.395 158.708, 300.321 160.561 C 300.969 160.804, 303.075 160.034, 305 158.848 C 306.925 157.663, 308.050 156.544, 307.500 156.361 C 305.572 155.722, 267.744 147.001, 267.125 147.052 C 266.781 147.081, 265.504 147.800, 264.287 148.650 M 274.829 155.681 C 276.792 159.349, 278.506 160.182, 281.388 158.869 C 284.933 157.254, 284.671 156.349, 280.429 155.553 C 278.465 155.184, 276.163 154.616, 275.313 154.290 C 274.045 153.803, 273.958 154.053, 274.829 155.681 M 240.760 162.268 C 234.853 165.695, 230.015 168.765, 230.010 169.089 C 230.004 169.414, 231.198 170.225, 232.663 170.892 C 234.943 171.931, 235.924 171.788, 239.493 169.894 L 243.661 167.684 253.080 173.199 C 267.101 181.410, 266.050 181.043, 269.874 179.065 L 273.241 177.324 262.128 170.912 C 256.016 167.385, 251.012 164.174, 251.008 163.776 C 251.004 163.377, 252.350 162.353, 254 161.500 C 255.650 160.647, 257 159.672, 257 159.335 C 257 158.472, 253.705 156.067, 252.500 156.049 C 251.950 156.042, 246.667 158.840, 240.760 162.268 M 333.082 159.903 L 330.664 161.762 339.786 167.094 C 344.803 170.026, 348.815 172.518, 348.702 172.631 C 348.589 172.744, 341.669 171.884, 333.325 170.720 C 318.246 168.615, 318.131 168.614, 314.494 170.551 C 312.481 171.623, 310.646 172.796, 310.416 173.157 C 310.186 173.518, 316.352 177.529, 324.119 182.069 L 338.240 190.325 341.659 188.484 L 345.077 186.644 335.581 181.113 C 330.358 178.071, 326.217 175.449, 326.380 175.287 C 326.543 175.124, 333.265 175.944, 341.319 177.109 C 356.647 179.325, 359.282 179.212, 363.029 176.178 L 365.310 174.330 351.224 166.165 C 343.477 161.674, 336.770 158.010, 336.319 158.022 C 335.869 158.034, 334.412 158.881, 333.082 159.903 M 216.750 176.080 C 215.787 176.641, 215 177.491, 215 177.970 C 215 179.579, 230.233 201, 231.373 200.993 C 231.993 200.990, 233.697 200.197, 235.161 199.232 C 237.559 197.650, 237.682 197.286, 236.411 195.547 C 234.349 192.727, 234.512 192.447, 240.108 189.216 C 244.695 186.567, 245.620 186.370, 249.195 187.277 C 252.426 188.097, 253.863 187.955, 256.837 186.518 C 260.157 184.913, 260.313 184.666, 258.500 183.882 C 255.910 182.762, 222.199 174.991, 220.100 175.030 C 219.220 175.047, 217.713 175.519, 216.750 176.080 M 292.665 183.154 C 285.468 187.312, 284.078 188.489, 285.165 189.502 C 286.953 191.166, 311.032 205, 312.142 205 C 313.232 205, 330.875 195.011, 331.462 194.062 C 331.698 193.680, 330.678 192.651, 329.196 191.776 C 326.592 190.239, 326.267 190.321, 319.642 194.204 C 313.478 197.816, 312.543 198.093, 310.392 196.942 C 309.077 196.238, 308 195.360, 308 194.990 C 308 194.620, 310.236 193.101, 312.969 191.613 C 315.702 190.126, 318.142 188.580, 318.390 188.177 C 318.639 187.775, 317.570 186.716, 316.015 185.823 C 313.274 184.250, 313.014 184.305, 307.544 187.600 C 301.296 191.364, 300.321 191.559, 297.694 189.567 C 296.039 188.312, 296.394 187.919, 301.944 184.868 C 305.275 183.037, 308 181.208, 308 180.804 C 308 179.858, 304.522 177.993, 302.816 178.024 C 302.092 178.038, 297.524 180.346, 292.665 183.154 M 228.158 185 C 230.768 188.530, 230.696 188.517, 234.318 186.129 L 237.135 184.271 232.625 183.136 C 226.110 181.495, 225.695 181.669, 228.158 185 M 82.001 238.250 L 82.003 290.500 101.641 315 C 121.107 339.285, 124.739 344.909, 127.102 354.423 L 128.325 359.346 129.535 355.247 C 133.767 340.913, 142.674 337.496, 157.116 344.667 C 171.618 351.868, 182.442 366.172, 187.334 384.601 C 189.657 393.351, 189.682 393.391, 190.323 389.384 C 191.260 383.524, 196.074 377.358, 200.823 375.935 C 211.744 372.663, 231.105 385.633, 240.573 402.564 C 243.812 408.356, 247.908 419.335, 249.485 426.452 L 250.140 429.404 251.986 425.280 C 253.002 423.012, 254.883 420.504, 256.166 419.708 C 257.620 418.806, 263.966 417.819, 273 417.089 C 280.975 416.445, 289.637 415.654, 292.250 415.330 L 297 414.742 297 362.513 L 297 310.284 190.068 248.142 C 131.255 213.964, 82.880 186, 82.568 186 C 82.255 186, 82.001 209.512, 82.001 238.250 M 413.101 248.293 L 305.702 310.409 306.233 433.753 C 306.525 501.593, 306.969 557.302, 307.218 557.552 C 307.468 557.802, 356.193 529.994, 415.496 495.756 L 523.320 433.506 522.661 383.503 C 522.299 356.001, 522.002 300.313, 522.001 259.750 C 522 219.188, 521.663 186.040, 521.250 186.089 C 520.837 186.138, 472.170 214.130, 413.101 248.293 M 189.500 192.849 C 183.807 194.880, 174.768 200.072, 174.607 201.404 C 174.548 201.893, 180.681 205.870, 188.235 210.241 L 201.970 218.189 208.395 214.596 C 222.532 206.690, 223.698 199.027, 211.618 193.403 C 205.342 190.480, 196.743 190.265, 189.500 192.849 M 272.649 194.625 C 269.224 196.481, 268.258 195.673, 286.148 205.916 C 298.793 213.156, 298.796 213.157, 301.898 211.553 C 303.604 210.671, 305 209.782, 305 209.578 C 305 209.029, 277.120 192.993, 276.247 193.040 C 275.836 193.062, 274.217 193.775, 272.649 194.625 M 194.120 197.109 C 192.260 197.668, 189.644 198.843, 188.305 199.720 L 185.871 201.315 194.142 206.082 C 203.029 211.204, 203.771 211.235, 208.750 206.701 C 211.774 203.947, 211.583 201.551, 208.145 199.103 C 204.640 196.608, 198.631 195.753, 194.120 197.109 M 258.857 202.569 C 252.253 204.602, 248 208.845, 248 213.401 C 248 217.557, 249.927 219.858, 256.209 223.201 C 261.965 226.265, 276.592 226.508, 282 223.629 C 287.228 220.846, 290 217.938, 290 215.238 C 290 212.955, 289.770 212.862, 285.750 213.526 C 283.413 213.913, 281.500 214.290, 281.500 214.364 C 281.500 214.439, 281.001 215.400, 280.391 216.500 C 277.526 221.666, 265.719 222.159, 260.005 217.351 C 254.603 212.805, 256.614 208.692, 265.250 206.621 C 267.334 206.122, 268 205.361, 268 203.481 C 268 200.550, 266.046 200.355, 258.857 202.569 M 228.500 219.662 C 220.801 223.721, 218.993 228.277, 223.635 231.927 C 226.878 234.479, 233.630 234.669, 242.193 232.450 C 246.858 231.241, 248.491 231.163, 249.613 232.093 C 251.737 233.856, 248.827 236.684, 244.062 237.490 C 240.735 238.052, 240.355 238.406, 240.767 240.562 C 241.398 243.860, 245.935 243.833, 252.639 240.493 C 260.960 236.346, 261.926 231.082, 255.020 227.510 C 251.212 225.541, 247.025 225.592, 238.767 227.709 C 233.278 229.116, 231.800 229.196, 230.767 228.146 C 229.742 227.104, 229.950 226.490, 231.861 224.929 C 233.159 223.868, 235.072 223, 236.111 223 C 237.459 223, 238 222.284, 238 220.500 C 238 218.338, 237.561 218.005, 234.750 218.040 C 232.963 218.062, 230.150 218.792, 228.500 219.662 M 82 347.304 L 82 378.609 100.750 386.915 C 111.063 391.483, 120.063 395.444, 120.750 395.717 C 121.716 396.101, 122 392.881, 122 381.557 C 122 365.640, 121.661 364.304, 115.640 356.500 C 109.813 348.946, 82.753 316, 82.377 316 C 82.170 316, 82 330.087, 82 347.304 M 372.151 322.318 C 371.504 323.098, 370.943 329.475, 370.779 337.941 L 370.500 352.246 362.205 342.620 L 353.910 332.995 350.955 334.523 L 348 336.051 348 354.026 C 348 363.912, 348.255 372, 348.566 372 C 348.877 372, 350.002 371.534, 351.066 370.965 C 352.837 370.017, 353.002 368.731, 353.025 355.715 L 353.050 341.500 356.777 345.500 C 358.827 347.700, 362.588 351.907, 365.135 354.849 L 369.767 360.199 372.383 358.484 L 375 356.770 375 338.885 C 375 329.048, 374.605 321, 374.122 321 C 373.640 321, 372.753 321.593, 372.151 322.318 M 331.727 345.454 C 330.124 346.630, 329.980 348.499, 330.227 364.991 L 330.500 383.228 332.555 381.364 C 334.523 379.579, 334.586 378.755, 334.055 361.827 C 333.531 345.136, 333.401 344.226, 331.727 345.454 M 142.152 366.338 C 140.026 368.602, 139.964 369.290, 140.228 387.931 L 140.500 407.185 144.939 409.806 C 148.948 412.172, 149.304 412.236, 148.616 410.463 C 145.043 401.253, 145.669 390.177, 150.009 385.837 C 153.719 382.127, 156.852 382.244, 162.172 386.294 C 168.737 391.292, 173.200 400.738, 173.787 410.882 C 174.126 416.739, 173.846 419.602, 172.712 421.875 C 171.199 424.908, 171.221 424.974, 174.458 426.974 C 180.253 430.555, 180.183 430.779, 179.826 409.750 C 179.508 390.987, 179.429 390.355, 176.688 384.773 C 173.366 378.009, 166.109 371.242, 157.590 366.966 C 150.275 363.294, 145.205 363.088, 142.152 366.338 M 160.485 393.024 C 158.557 396.144, 165.303 408, 169.006 408 C 170.130 408, 171 407.332, 171 406.468 C 171 403.762, 167.973 397.582, 165.260 394.750 C 162.412 391.777, 161.467 391.435, 160.485 393.024 M 202.400 398.707 C 199.506 400.793, 199 404.367, 199.008 422.684 L 199.016 441.500 203.119 443.728 L 207.222 445.955 206.587 443.728 C 203.403 432.539, 203.778 424.606, 207.713 419.929 C 215.975 410.111, 231.835 427.438, 232.123 446.596 C 232.179 450.367, 231.614 454.068, 230.702 455.896 L 229.187 458.933 233.719 461.467 C 236.212 462.860, 238.454 464, 238.701 464 C 238.948 464, 239.004 455.113, 238.825 444.250 C 238.500 424.516, 238.498 424.496, 235.548 419.171 C 232.002 412.769, 223.195 404.395, 216.556 401.112 C 211.467 398.595, 204.254 397.369, 202.400 398.707 M 341.167 400.876 C 339.981 401.628, 337.563 408.772, 328.692 437.737 L 326.170 445.975 328.747 444.625 C 330.567 443.671, 331.794 441.715, 332.925 437.962 C 334.433 432.957, 334.938 432.406, 341.637 428.449 L 348.748 424.249 350.375 427.659 C 351.851 430.754, 352.209 430.962, 354.250 429.899 C 355.488 429.256, 356.638 428.615, 356.806 428.475 C 357.340 428.032, 344.217 400.572, 343.339 400.296 C 342.878 400.151, 341.900 400.412, 341.167 400.876 M 83.048 417.799 L 83.096 434.500 189.098 496 C 247.399 529.825, 295.527 557.650, 296.050 557.833 C 296.625 558.035, 296.997 551.722, 296.993 541.833 L 296.985 525.500 242.743 488.899 L 188.500 452.297 157 437.004 C 139.675 428.594, 115.938 417.074, 104.250 411.405 L 83 401.098 83.048 417.799 M 339.004 416.750 C 337.746 421.012, 336.499 425.084, 336.233 425.798 C 335.872 426.767, 344.925 422.240, 346.792 420.518 C 347.173 420.167, 342.237 409, 341.701 409 C 341.476 409, 340.262 412.488, 339.004 416.750 M 425.902 412.995 C 425.023 413.509, 422.575 418.051, 420.463 423.089 L 416.622 432.248 412.775 428.124 C 408.666 423.719, 407.488 423.313, 404.782 425.368 C 403.215 426.559, 403.505 427.167, 408.100 432.323 L 413.136 437.973 407.642 450.487 C 404.620 457.369, 402.355 463, 402.609 463 C 405.179 463, 408.406 458.533, 412.123 449.827 L 416.416 439.773 420.958 444.851 C 425.483 449.910, 425.511 449.924, 428.364 448.373 L 431.227 446.817 427.842 443.159 C 425.980 441.146, 423.390 438.277, 422.085 436.783 L 419.714 434.066 424.357 423.664 C 429.956 411.121, 430.034 410.579, 425.902 412.995 M 218.341 427.554 C 217.055 430.906, 224.052 442, 227.452 442 C 230.701 442, 228.237 433.706, 223.456 428.547 C 220.752 425.630, 219.195 425.327, 218.341 427.554 M 376.737 440.952 C 362.874 449.744, 356.656 475.009, 367.259 479.467 C 372.265 481.572, 377.596 479.543, 384.087 473.063 C 390.681 466.481, 394 458.897, 394 450.413 C 394 438.290, 386.991 434.449, 376.737 440.952 M 270.290 440.966 C 255.630 441.902, 255.877 441.570, 256.224 459.887 L 256.500 474.417 275 487.778 C 285.175 495.127, 294.288 501.574, 295.250 502.105 C 296.900 503.015, 297 501.270, 297 471.535 L 297 440 288.750 440.157 C 284.212 440.243, 275.906 440.607, 270.290 440.966 M 379.500 444.164 C 372.320 448.126, 367.026 457.275, 367.010 465.750 C 367 471.237, 369.249 475, 372.540 475 C 376.062 475, 382.219 470.725, 384.990 466.355 C 392.932 453.831, 389.215 438.804, 379.500 444.164 M 340 463.026 C 336.975 464.690, 333.488 466.562, 332.250 467.186 C 330.040 468.301, 330 468.644, 330 486.681 L 330 505.040 335.250 502.087 C 346.412 495.809, 352 489.137, 352 482.089 C 352 479.244, 348.633 475.491, 346.991 476.505 C 346.616 476.737, 347.364 474.842, 348.654 472.294 C 351.521 466.631, 351.590 464.590, 349 462 C 346.448 459.448, 346.518 459.441, 340 463.026 M 338.750 468.220 C 335.239 470.255, 335 470.699, 335 475.197 C 335 477.838, 335.346 480, 335.768 480 C 336.190 480, 338.149 478.904, 340.120 477.565 C 343.908 474.990, 346.620 470.059, 345.645 467.518 C 344.859 465.469, 343.205 465.637, 338.750 468.220 M 338.750 483.199 C 335.100 485.335, 335 485.547, 335 491.197 C 335 494.388, 335.234 497, 335.520 497 C 335.806 497, 337.819 495.877, 339.995 494.503 C 344.941 491.381, 347.240 487.951, 346.823 484.315 C 346.405 480.673, 343.705 480.300, 338.750 483.199" stroke="none" fill="#010001" fill-rule="evenodd"/><path d="M 144.315 364.974 C 140.465 366.583, 140 369.091, 140.008 388.184 L 140.015 406.500 144.154 408.864 L 148.293 411.228 147.600 408.864 C 146.351 404.605, 145.726 395.274, 146.436 391.487 C 147.893 383.723, 155.018 380.699, 161.458 385.112 C 170.816 391.524, 177.169 409.689, 173.637 419.933 C 171.892 424.991, 172.039 425.452, 176.063 427.533 L 179 429.051 179 409.722 C 179 391.042, 178.915 390.222, 176.468 385.311 C 170.461 373.257, 152.174 361.691, 144.315 364.974 M 161 395.860 C 161 399.784, 166.542 407.929, 169.250 407.985 C 171.054 408.022, 169.750 401.997, 167.022 397.696 C 163.602 392.303, 161 391.510, 161 395.860 M 201.952 399.836 C 199.523 401.801, 199.497 402, 199.192 421.277 L 198.884 440.734 202.499 442.867 C 204.487 444.040, 206.270 445, 206.459 445 C 206.649 445, 206.173 442.903, 205.402 440.341 C 202.366 430.254, 204.529 419.913, 210.242 417.201 C 212.613 416.075, 213.583 416.164, 217.422 417.863 C 227.848 422.474, 236.088 443.673, 231.617 454.375 C 230.727 456.503, 230 458.370, 230 458.523 C 230 458.877, 236.961 463, 237.557 463 C 237.801 463, 238 454.400, 238 443.890 L 238 424.780 234.816 418.807 C 231.200 412.023, 224.198 405.417, 216.641 401.662 C 209.122 397.926, 204.953 397.408, 201.952 399.836 M 219.263 429.924 C 219.879 434.519, 224.220 441, 226.682 441 C 230.453 441, 225.641 429.484, 220.784 426.884 C 218.803 425.824, 218.732 425.965, 219.263 429.924" stroke="none" fill="#ffffff" fill-rule="evenodd"/><path d="M 82.001 238.167 L 82.003 290.500 101.605 315 C 122.098 340.613, 123.635 342.907, 126.550 352.209 L 128.339 357.918 130.568 352.433 C 133.229 345.887, 134.403 344.360, 138.341 342.324 C 149.781 336.408, 172.219 350.504, 181.686 369.555 C 183.888 373.986, 186.491 380.883, 187.472 384.884 L 189.254 392.157 190.985 387.044 C 194.370 377.045, 200.614 373.583, 210.224 376.377 C 226.372 381.071, 242.467 399.461, 247.548 419.024 C 248.473 422.586, 249.440 426.175, 249.696 427 C 250.008 428.001, 250.807 427.257, 252.100 424.761 C 253.165 422.705, 255.041 420.401, 256.268 419.641 C 257.596 418.820, 264.375 417.786, 273 417.089 C 280.975 416.445, 289.637 415.654, 292.250 415.330 L 297 414.742 297 362.579 L 297 310.415 190.404 248.457 C 131.776 214.381, 83.401 186.350, 82.904 186.167 C 82.373 185.971, 82.001 207.397, 82.001 238.167 M 82 346.727 C 82 370.557, 82.294 378.070, 83.250 378.683 C 84.631 379.569, 121.184 396, 121.773 396 C 121.975 396, 121.997 389.096, 121.820 380.659 L 121.500 365.317 117.878 359.909 C 114.725 355.199, 87.267 321.047, 83.408 317.036 C 82.196 315.775, 82 319.908, 82 346.727 M 179.413 411.500 C 179.414 421.400, 179.564 425.315, 179.746 420.199 C 179.928 415.084, 179.927 406.984, 179.744 402.199 C 179.561 397.415, 179.412 401.600, 179.413 411.500 M 83.226 417.746 L 83.500 434.362 189.873 496.181 C 248.378 530.181, 296.416 558, 296.623 558 C 296.830 558, 296.982 550.688, 296.960 541.750 L 296.920 525.500 243.710 489.583 L 190.500 453.666 160.161 438.787 C 143.475 430.603, 119.276 418.782, 106.387 412.518 L 82.952 401.130 83.226 417.746 M 238.417 445.500 C 238.418 455.950, 238.566 460.089, 238.746 454.698 C 238.926 449.307, 238.925 440.757, 238.744 435.698 C 238.563 430.639, 238.416 435.050, 238.417 445.500 M 270.218 441.023 C 255.707 442.047, 256 441.665, 256 459.599 L 256 473.887 275.250 487.749 C 285.837 495.372, 295.063 501.949, 295.750 502.364 C 296.740 502.961, 297 496.542, 297 471.559 L 297 440 288.750 440.148 C 284.212 440.230, 275.873 440.623, 270.218 441.023" stroke="none" fill="#a6d4e8" fill-rule="evenodd"/><path d="M 413.101 248.293 L 305.702 310.409 306.233 433.753 C 306.525 501.593, 306.969 557.302, 307.218 557.552 C 307.468 557.802, 356.193 529.994, 415.496 495.756 L 523.320 433.506 522.661 383.503 C 522.299 356.001, 522.002 300.313, 522.001 259.750 C 522 219.188, 521.663 186.040, 521.250 186.089 C 520.837 186.138, 472.170 214.130, 413.101 248.293 M 229.762 234.707 C 231.006 234.946, 232.806 234.937, 233.762 234.687 C 234.718 234.437, 233.700 234.241, 231.500 234.252 C 229.300 234.263, 228.518 234.468, 229.762 234.707 M 372.151 322.318 C 371.504 323.098, 370.943 329.475, 370.779 337.941 L 370.500 352.246 362.205 342.620 L 353.910 332.995 350.955 334.523 L 348 336.051 348 354.026 C 348 363.912, 348.255 372, 348.566 372 C 348.877 372, 350.002 371.534, 351.066 370.965 C 352.837 370.017, 353.002 368.731, 353.025 355.715 L 353.050 341.500 356.777 345.500 C 358.827 347.700, 362.588 351.907, 365.135 354.849 L 369.767 360.199 372.383 358.484 L 375 356.770 375 338.885 C 375 329.048, 374.605 321, 374.122 321 C 373.640 321, 372.753 321.593, 372.151 322.318 M 331.727 345.454 C 330.124 346.630, 329.980 348.499, 330.227 364.991 L 330.500 383.228 332.555 381.364 C 334.523 379.579, 334.586 378.755, 334.055 361.827 C 333.531 345.136, 333.401 344.226, 331.727 345.454 M 341.167 400.876 C 339.981 401.628, 337.563 408.772, 328.692 437.737 L 326.170 445.975 328.747 444.625 C 330.567 443.671, 331.794 441.715, 332.925 437.962 C 334.433 432.957, 334.938 432.406, 341.637 428.449 L 348.748 424.249 350.375 427.659 C 351.851 430.754, 352.209 430.962, 354.250 429.899 C 355.488 429.256, 356.638 428.615, 356.806 428.475 C 357.340 428.032, 344.217 400.572, 343.339 400.296 C 342.878 400.151, 341.900 400.412, 341.167 400.876 M 339.004 416.750 C 337.746 421.012, 336.499 425.084, 336.233 425.798 C 335.872 426.767, 344.925 422.240, 346.792 420.518 C 347.173 420.167, 342.237 409, 341.701 409 C 341.476 409, 340.262 412.488, 339.004 416.750 M 425.902 412.995 C 425.023 413.509, 422.575 418.051, 420.463 423.089 L 416.622 432.248 412.775 428.124 C 408.666 423.719, 407.488 423.313, 404.782 425.368 C 403.215 426.559, 403.505 427.167, 408.100 432.323 L 413.136 437.973 407.642 450.487 C 404.620 457.369, 402.355 463, 402.609 463 C 405.179 463, 408.406 458.533, 412.123 449.827 L 416.416 439.773 420.958 444.851 C 425.483 449.910, 425.511 449.924, 428.364 448.373 L 431.227 446.817 427.842 443.159 C 425.980 441.146, 423.390 438.277, 422.085 436.783 L 419.714 434.066 424.357 423.664 C 429.956 411.121, 430.034 410.579, 425.902 412.995 M 376.737 440.952 C 362.874 449.744, 356.656 475.009, 367.259 479.467 C 372.265 481.572, 377.596 479.543, 384.087 473.063 C 390.681 466.481, 394 458.897, 394 450.413 C 394 438.290, 386.991 434.449, 376.737 440.952 M 379.500 444.164 C 372.320 448.126, 367.026 457.275, 367.010 465.750 C 367 471.237, 369.249 475, 372.540 475 C 376.062 475, 382.219 470.725, 384.990 466.355 C 392.932 453.831, 389.215 438.804, 379.500 444.164 M 340 463.026 C 336.975 464.690, 333.488 466.562, 332.250 467.186 C 330.040 468.301, 330 468.644, 330 486.681 L 330 505.040 335.250 502.087 C 346.412 495.809, 352 489.137, 352 482.089 C 352 479.244, 348.633 475.491, 346.991 476.505 C 346.616 476.737, 347.364 474.842, 348.654 472.294 C 351.521 466.631, 351.590 464.590, 349 462 C 346.448 459.448, 346.518 459.441, 340 463.026 M 338.750 468.220 C 335.239 470.255, 335 470.699, 335 475.197 C 335 477.838, 335.346 480, 335.768 480 C 336.190 480, 338.149 478.904, 340.120 477.565 C 343.908 474.990, 346.620 470.059, 345.645 467.518 C 344.859 465.469, 343.205 465.637, 338.750 468.220 M 338.750 483.199 C 335.100 485.335, 335 485.547, 335 491.197 C 335 494.388, 335.234 497, 335.520 497 C 335.806 497, 337.819 495.877, 339.995 494.503 C 344.941 491.381, 347.240 487.951, 346.823 484.315 C 346.405 480.673, 343.705 480.300, 338.750 483.199" stroke="none" fill="#f26baa" fill-rule="evenodd"/><path d="M 195 115.092 C 135.875 149.236, 87.396 177.274, 87.269 177.400 C 86.757 177.907, 300.409 301.491, 301.593 301.372 C 302.295 301.302, 351.052 273.426, 409.941 239.427 L 517.012 177.610 514.256 175.899 C 510.597 173.627, 302.922 52.998, 302.685 53.007 C 302.583 53.010, 254.125 80.949, 195 115.092 M 381.767 131.350 C 376.963 134.183, 373.026 136.792, 373.017 137.148 C 372.987 138.301, 401.117 154.170, 402.328 153.683 C 402.973 153.423, 407.742 150.719, 412.927 147.674 L 422.354 142.136 418.741 140.413 L 415.127 138.690 408.992 142.345 C 402.207 146.387, 401.214 146.608, 398.558 144.666 C 396.891 143.447, 397.282 143.024, 403.095 139.759 L 409.457 136.186 405.835 134.458 C 402.218 132.734, 402.205 132.736, 396.564 135.963 C 392.566 138.251, 390.197 139.015, 388.457 138.579 C 387.106 138.239, 386 137.624, 386 137.212 C 386 136.799, 388.761 134.944, 392.137 133.088 L 398.273 129.715 395.887 127.880 C 394.574 126.870, 392.825 126.080, 392 126.122 C 391.175 126.165, 386.570 128.518, 381.767 131.350 M 361.764 142.996 C 357.799 144.190, 352.132 147.886, 350.987 150.024 C 346.022 159.302, 357.571 167.761, 373.873 166.787 C 384.820 166.133, 393 161.424, 393 155.777 C 393 154.387, 392.183 154.003, 389.250 154.015 C 385.078 154.032, 384.005 154.579, 382.404 157.500 C 379.159 163.422, 363.379 162.313, 359.959 155.923 C 358.306 152.835, 361.052 149.265, 365.742 148.402 C 369.733 147.669, 370.960 146.580, 370.985 143.750 C 371.002 141.816, 366.819 141.474, 361.764 142.996 M 264.117 148.750 C 262.014 150.499, 262.018 150.508, 269.955 161.983 C 274.323 168.299, 278.258 173.584, 278.699 173.729 C 279.139 173.874, 281.011 173.071, 282.859 171.945 C 285.989 170.036, 286.108 169.777, 284.609 168.120 C 282.197 165.455, 282.576 164.750, 288.033 161.740 C 292.585 159.229, 293.424 159.078, 297.337 160.063 C 301.149 161.023, 302.074 160.889, 305.483 158.878 C 307.597 157.630, 308.916 156.479, 308.414 156.320 C 305.690 155.456, 268.553 147, 267.486 147 C 266.791 147, 265.275 147.787, 264.117 148.750 M 276.105 157.147 C 278.401 160.372, 278.422 160.380, 281.066 158.965 C 284.050 157.368, 283.399 156.428, 278.537 155.316 L 274.073 154.294 276.105 157.147 M 240.500 162.107 C 235 165.352, 230.377 168.373, 230.227 168.822 C 230.077 169.270, 231.123 170.263, 232.551 171.028 C 234.880 172.274, 235.590 172.184, 239.406 170.159 L 243.664 167.900 254.999 174.588 L 266.334 181.275 269.638 179.496 C 271.456 178.517, 272.726 177.366, 272.462 176.939 C 272.198 176.512, 268.949 174.475, 265.241 172.413 C 261.533 170.352, 256.735 167.561, 254.578 166.211 L 250.656 163.758 254.410 161.493 L 258.163 159.228 255.859 157.614 C 254.592 156.726, 252.868 156.047, 252.027 156.104 C 251.187 156.161, 246 158.863, 240.500 162.107 M 332.678 159.874 L 329.856 161.735 338.561 166.617 C 343.349 169.303, 346.644 171.623, 345.883 171.774 C 345.123 171.924, 338.650 171.180, 331.500 170.120 L 318.500 168.193 314.226 170.653 C 311.875 172.006, 310.183 173.487, 310.466 173.944 C 310.748 174.402, 317.058 178.257, 324.487 182.511 C 337.356 189.880, 338.136 190.186, 341.018 188.992 C 342.682 188.303, 344.264 187.383, 344.533 186.946 C 344.803 186.510, 341.756 184.344, 337.762 182.133 C 325.045 175.093, 325.064 175.073, 341.999 177.500 L 357.299 179.692 361.701 177.232 C 364.123 175.878, 365.968 174.635, 365.802 174.470 C 364.722 173.393, 337.348 158.001, 336.523 158.007 C 335.961 158.010, 334.230 158.851, 332.678 159.874 M 216.749 175.995 L 213.997 177.674 222.142 189.587 C 226.622 196.139, 230.391 201.631, 230.517 201.791 C 230.644 201.950, 232.396 201.109, 234.410 199.920 C 238.010 197.796, 238.045 197.717, 236.431 195.254 C 234.589 192.443, 234.569 192.469, 241.450 188.839 C 244.793 187.076, 246.059 186.905, 249.671 187.732 C 253.376 188.580, 254.437 188.410, 257.684 186.451 L 261.427 184.192 257.463 183.148 C 255.283 182.573, 248.325 180.923, 242 179.480 C 235.675 178.037, 228.025 176.285, 225 175.586 C 220.162 174.469, 219.169 174.519, 216.749 175.995 M 292.650 182.911 L 282.800 188.745 297.503 197.250 L 312.206 205.754 322.093 200.127 C 327.530 197.032, 331.984 194.174, 331.990 193.776 C 331.995 193.377, 330.739 192.399, 329.198 191.602 C 326.551 190.233, 326.018 190.365, 319.534 193.981 C 313.753 197.205, 312.305 197.640, 310.336 196.743 C 309.051 196.158, 308 195.398, 308 195.054 C 308 194.711, 310.473 193.096, 313.497 191.465 C 316.520 189.834, 318.995 188.177, 318.997 187.782 C 318.998 187.387, 317.762 186.407, 316.250 185.605 C 313.665 184.233, 313.126 184.353, 307.263 187.615 C 302.176 190.444, 300.654 190.885, 299.013 190.007 C 297.906 189.414, 297 188.739, 297 188.507 C 297 188.275, 299.137 186.863, 301.750 185.370 C 309.389 181.004, 309.431 180.940, 306.003 178.855 C 304.325 177.835, 302.850 177.017, 302.726 177.038 C 302.602 177.059, 298.067 179.702, 292.650 182.911 M 227 182.573 C 227 182.909, 227.811 184.215, 228.801 185.474 C 230.505 187.641, 230.760 187.682, 233.520 186.235 C 236.189 184.837, 236.270 184.646, 234.469 184.002 C 230.786 182.684, 227 181.960, 227 182.573 M 189.897 192.375 C 184.074 194.457, 172.733 201.142, 173.653 201.950 C 175.441 203.520, 201.178 218, 202.181 218 C 203.893 218, 215.304 210.768, 217.750 208.132 C 222.513 203, 219.462 196.179, 210.782 192.553 C 206.275 190.670, 194.938 190.574, 189.897 192.375 M 272.143 194.857 L 269.786 196.670 283.896 204.835 C 291.657 209.326, 298.567 212.990, 299.253 212.978 C 299.939 212.966, 301.584 212.122, 302.909 211.104 L 305.317 209.252 295.909 203.765 C 274.588 191.330, 276.027 191.870, 272.143 194.857 M 197.500 196.744 C 193.529 197.429, 186.908 200.223, 187.201 201.089 C 187.365 201.576, 190.875 203.958, 195 206.383 C 202.372 210.716, 202.549 210.763, 205.368 209.146 C 211.151 205.828, 212.169 201.231, 207.656 198.816 C 204.845 197.312, 199.971 196.317, 197.500 196.744 M 258.558 202.492 C 253.337 204.352, 249.806 207.056, 248.130 210.477 C 246.131 214.557, 248.561 219.070, 254.700 222.678 C 259.056 225.239, 260.379 225.500, 269 225.500 C 276.954 225.500, 279.278 225.117, 283.277 223.148 C 287.599 221.019, 291 217.013, 291 214.050 C 291 212.865, 284.091 212.636, 282.400 213.765 C 281.795 214.169, 280.774 215.497, 280.133 216.716 C 276.907 222.843, 260.880 221.221, 257.798 214.456 C 256.298 211.164, 258.969 208.189, 264.169 207.357 C 266.315 207.014, 268 206.177, 268 205.454 C 268 204.744, 268.273 203.452, 268.607 202.582 C 269.088 201.329, 268.517 201.009, 265.857 201.044 C 264.011 201.068, 260.726 201.720, 258.558 202.492 M 230.915 218.552 C 222.071 221.276, 218.449 227.545, 223.175 231.949 C 226.378 234.933, 231.162 235.454, 238.479 233.616 C 245.793 231.779, 249.615 231.568, 250.473 232.956 C 251.246 234.207, 247.371 236.622, 243.193 237.494 C 240.537 238.048, 239.946 238.610, 240.193 240.342 C 240.636 243.458, 246.454 243.737, 252.426 240.930 C 260.415 237.174, 261.990 232.853, 256.923 228.589 C 253.184 225.442, 247.044 225.145, 237.957 227.672 C 233.489 228.914, 231.653 229.053, 230.814 228.214 C 229.132 226.532, 231.497 224.185, 235.660 223.404 C 238.139 222.939, 238.961 222.341, 238.560 221.296 C 238.252 220.493, 238 219.198, 238 218.418 C 238 216.698, 236.862 216.720, 230.915 218.552" stroke="none" fill="#ffd748" fill-rule="evenodd"/></svg>